<?xml version="1.0" encoding="UTF-8"?>
<svg id="Layer_3" data-name="Layer 3" xmlns="http://www.w3.org/2000/svg" version="1.1" viewBox="0 0 500 500">
  <defs>
    <style>
      .cls-1 {
        fill: #fff;
        stroke-width: 0px;
      }
    </style>
  </defs>
  <path class="cls-1" d="M383.36,172.58h-111.88V60.75h-21.51c-73.5,0-133.33,59.79-133.33,133.33,0,19.93,4.4,38.9,12.33,55.91-7.93,17.01-12.33,35.99-12.33,55.91v21.51h111.83v111.83h21.51c73.55,0,133.38-59.79,133.38-133.33,0-19.93-4.4-38.9-12.33-55.91,7.93-17.01,12.33-35.99,12.33-55.91v-21.51ZM159.65,194.09c0-42.39,29.39-78.09,68.82-87.74v68.01c-25.85,4.21-49.22,15.87-67.86,32.74-.62-4.25-.96-8.6-.96-13ZM179.1,250c16.54-20.93,42.15-34.41,70.87-34.41s54.39,13.48,70.92,34.41c-16.58,20.98-42.2,34.41-70.92,34.41s-54.34-13.48-70.87-34.41ZM271.48,393.66v-68c25.86-4.16,49.27-15.87,67.91-32.74.62,4.25.96,8.6.96,13,0,42.39-29.39,78.09-68.87,87.74Z"/>
</svg>